<svg xmlns="http://www.w3.org/2000/svg" viewBox="0 0 64 64" fill="none">
  <rect width="64" height="64" rx="14" fill="#111317" />
  <path
    d="M18 20c0-1.657 1.343-3 3-3h22c1.657 0 3 1.343 3 3v24c0 1.657-1.343 3-3 3H21c-1.657 0-3-1.343-3-3V20z"
    fill="#1f242d"
  />
  <path
    d="M22 24c0-1.105.895-2 2-2h16c1.105 0 2 .895 2 2v6c0 1.105-.895 2-2 2H24c-1.105 0-2-.895-2-2v-6z"
    fill="#6ee7b7"
  />
  <circle cx="24" cy="40" r="3" fill="#9aa3af" />
  <circle cx="32" cy="40" r="3" fill="#9aa3af" />
  <circle cx="40" cy="40" r="3" fill="#9aa3af" />
</svg>
